<svg width="26" height="26" viewBox="0 0 26 26" fill="none" xmlns="http://www.w3.org/2000/svg">
<path d="M11.9166 4.33337H4.33329C3.75866 4.33337 3.20756 4.56165 2.80123 4.96798C2.3949 5.3743 2.16663 5.9254 2.16663 6.50004V21.6667C2.16663 22.2413 2.3949 22.7924 2.80123 23.1988C3.20756 23.6051 3.75866 23.8334 4.33329 23.8334H19.5C20.0746 23.8334 20.6257 23.6051 21.032 23.1988C21.4384 22.7924 21.6666 22.2413 21.6666 21.6667V14.0834" stroke="black" stroke-width="2" stroke-linecap="round" stroke-linejoin="round"/>
<path d="M20.0416 2.70838C20.4726 2.2774 21.0571 2.03528 21.6666 2.03528C22.2761 2.03528 22.8606 2.2774 23.2916 2.70838C23.7226 3.13935 23.9647 3.72388 23.9647 4.33338C23.9647 4.94287 23.7226 5.5274 23.2916 5.95838L13 16.25L8.66663 17.3334L9.74996 13L20.0416 2.70838Z" stroke="black" stroke-width="2" stroke-linecap="round" stroke-linejoin="round"/>
</svg>
