<svg width="128" height="130" viewBox="0 0 128 130" fill="none" xmlns="http://www.w3.org/2000/svg">
<rect width="128" height="130" rx="64" fill="#2A5235"/>
<path d="M61.5455 89H45.0455V42.4545H61.6818C66.3636 42.4545 70.3939 43.3864 73.7727 45.25C77.1515 47.0985 79.75 49.7576 81.5682 53.2273C83.4015 56.697 84.3182 60.8485 84.3182 65.6818C84.3182 70.5303 83.4015 74.697 81.5682 78.1818C79.75 81.6667 77.1364 84.3409 73.7273 86.2045C70.3333 88.0682 66.2727 89 61.5455 89ZM54.8864 80.5682H61.1364C64.0455 80.5682 66.4924 80.053 68.4773 79.0227C70.4773 77.9773 71.9773 76.3636 72.9773 74.1818C73.9924 71.9848 74.5 69.1515 74.5 65.6818C74.5 62.2424 73.9924 59.4318 72.9773 57.25C71.9773 55.0682 70.4848 53.4621 68.5 52.4318C66.5152 51.4015 64.0682 50.8864 61.1591 50.8864H54.8864V80.5682Z" fill="white"/>
<ellipse cx="106.6" cy="110.5" rx="18.6" ry="19.5" fill="white"/>
<path d="M112 102C112.263 101.737 112.574 101.529 112.918 101.387C113.261 101.245 113.629 101.172 114 101.172C114.371 101.172 114.739 101.245 115.082 101.387C115.426 101.529 115.737 101.737 116 102C116.263 102.263 116.471 102.575 116.613 102.918C116.755 103.261 116.828 103.629 116.828 104C116.828 104.371 116.755 104.739 116.613 105.082C116.471 105.426 116.263 105.737 116 106L102.5 119.5L97 121L98.5 115.5L112 102Z" stroke="black" stroke-width="2" stroke-linecap="round" stroke-linejoin="round"/>
</svg>
