<svg width="284" height="65" viewBox="0 0 284 65" fill="none" xmlns="http://www.w3.org/2000/svg">
<g filter="url(#filter0_b_19_178)">
<path d="M33.4541 28.0495C34.3805 28.3489 34.423 29.6072 33.5492 30.0388L30.5698 31.5112L33.3698 37.2838C34.1009 38.7912 36.2684 38.8664 37.1989 37.4168L39.1298 34.4086C39.3759 34.0252 39.885 33.901 40.2667 34.1314L42.571 35.5216C42.9528 35.7519 43.0627 36.2496 42.8166 36.633L40.8895 39.6353C38.0915 43.9943 31.6001 43.7678 29.4047 39.2408L26.6038 33.4713L23.6252 34.9433C22.7418 35.3801 21.7967 34.5598 22.1268 33.6476L24.755 26.3844C24.9603 25.817 25.5887 25.5066 26.1584 25.6908L33.4541 28.0495ZM26.5777 15.989L31.9176 15.8964L31.871 19.1386C31.8571 20.0975 33.0318 20.5614 33.7319 19.8697L39.2923 14.3755C39.7296 13.9432 39.7337 13.2599 39.3143 12.8485L33.9092 7.54444C33.2304 6.87828 32.0399 7.37908 32.0263 8.3404L31.9797 11.5783L26.6404 11.6692C21.7885 11.7537 18.5237 16.8228 20.5932 21.0902L21.5832 23.1294C21.7765 23.5278 22.2664 23.6861 22.6774 23.483L25.1582 22.257C25.5693 22.0539 25.7458 21.5661 25.5525 21.1675L24.5638 19.1292C23.8642 17.6867 24.9893 16.0167 26.5777 15.989ZM47.3283 11.3171L43.768 11.3777C43.3136 11.3854 42.9401 11.7544 42.9336 12.2018L42.8949 14.8965C42.8884 15.3438 43.2514 15.7 43.7056 15.6922L47.2705 15.6304C48.9848 15.6005 50.0146 17.4511 49.0831 18.9023L45.5181 24.4562L42.7541 22.7886C41.9353 22.2946 40.8819 23.0431 41.088 23.9758L42.7241 31.3847C42.8519 31.9634 43.4355 32.3155 44.0276 32.1711L51.6067 30.3222C52.5545 30.0911 52.7938 28.8459 51.9694 28.3485L49.2049 26.6806L52.766 21.1327C55.5618 16.7771 52.4914 11.2272 47.3283 11.3171Z" fill="url(#paint0_linear_19_178)"/>
</g>
<path d="M2.47084 30.6616C1.74159 30.9371 1.11645 31.4126 0.67604 32.0268C0.235632 32.6411 0.000155382 33.3658 -1.92741e-05 34.1076V63.1419C-1.92741e-05 64.4549 1.40365 65.3527 2.69435 64.8655L19.649 57.5768V30.5421C18.5633 28.6886 17.6755 26.8839 17.0393 25.1579L2.47084 30.6616ZM35.3681 47.3315C33.6402 47.3315 32.0057 46.6147 30.8845 45.3643C28.4701 42.6734 25.9022 39.609 23.5787 36.4657V57.5756L47.1575 64.9989V36.4668C44.834 39.609 42.2674 42.6746 39.8518 45.3655C38.7306 46.6147 37.096 47.3315 35.3681 47.3315ZM68.0419 24.3066L51.0873 31.5953V65.0001L68.2654 58.5105C68.9948 58.2351 69.62 57.7597 70.0604 57.1454C70.5009 56.5311 70.7363 55.8063 70.7363 55.0645V26.0302C70.7363 24.7172 69.3326 23.8194 68.0419 24.3066Z" fill="#366944"/>
<path d="M85.2656 53H76.2656V52.0859H79.0781V32.8203H76.2656V31.9062H86.9531C88.7812 31.9062 90.3281 32.3281 91.5938 33.1719C93.1172 34.2266 93.8789 35.6328 93.8789 37.3906C93.8789 38.0938 93.7383 38.7852 93.457 39.4648C92.6602 41.2461 91.1367 42.4297 88.8867 43.0156L94.5117 52.0859H95.6719C95.8125 52.0859 95.9414 52.0977 96.0586 52.1211C96.3633 52.168 96.5156 52.4609 96.5156 53H91.0312L85.4766 43.332H82.4531V52.0859H85.2656V53ZM85.6875 32.8203H82.4531V42.3125H85.8281C86.8359 42.3125 87.7031 42.0195 88.4297 41.4336C89.6016 40.5195 90.1875 39.1953 90.1875 37.4609C90.1875 36.7109 90.0469 35.9961 89.7656 35.3164C89.0156 33.6523 87.6562 32.8203 85.6875 32.8203ZM105.305 38.5156C104.742 38.5156 104.215 38.6445 103.723 38.9023C102.129 39.7227 101.285 41.5156 101.191 44.2812L104.637 44.3867C105.668 44.4102 106.477 44.3516 107.062 44.2109C108.094 43.9531 108.609 43.25 108.609 42.1016C108.609 41.6094 108.539 41.1406 108.398 40.6953C107.93 39.2422 106.898 38.5156 105.305 38.5156ZM111.527 49.5898C111.387 49.8945 111.234 50.1992 111.07 50.5039C109.875 52.4023 107.965 53.3516 105.34 53.3516C103.77 53.3516 102.363 52.9648 101.121 52.1914C98.9414 50.7852 97.8516 48.582 97.8516 45.582C97.8516 43.8711 98.2266 42.3594 98.9766 41.0469C100.312 38.7734 102.398 37.6367 105.234 37.6367C106.734 37.6367 108.07 37.9531 109.242 38.5859C110.93 39.5469 111.773 40.8594 111.773 42.5234C111.773 43.3203 111.504 43.9531 110.965 44.4219C110.145 45.0781 108.234 45.3828 105.234 45.3359L101.191 45.2656C101.215 46.1328 101.285 46.9297 101.402 47.6562C101.965 50.7969 103.488 52.3672 105.973 52.3672C106.324 52.3672 106.688 52.332 107.062 52.2617C108.703 51.9102 109.898 50.9141 110.648 49.2734L111.527 49.5898ZM114.234 45.6172C114.234 43.9062 114.621 42.3828 115.395 41.0469C116.73 38.7734 118.875 37.6367 121.828 37.6367C123.188 37.6367 124.43 37.9297 125.555 38.5156C127.008 39.2891 127.734 40.25 127.734 41.3984C127.734 41.5391 127.711 41.6914 127.664 41.8555C127.453 42.6055 126.902 42.9688 126.012 42.9453C125.66 42.9219 125.367 42.8398 125.133 42.6992C124.734 42.4648 124.465 41.8555 124.324 40.8711C124.277 40.4727 124.23 40.1914 124.184 40.0273C123.926 39.0195 123.188 38.5156 121.969 38.5156C121.453 38.5156 120.961 38.6094 120.492 38.7969C118.547 39.5703 117.574 41.7734 117.574 45.4062C117.574 47.0938 117.855 48.5234 118.418 49.6953C119.285 51.4766 120.586 52.3672 122.32 52.3672C122.625 52.3672 122.93 52.3438 123.234 52.2969C125.086 51.9922 126.422 50.9844 127.242 49.2734L128.156 49.5547C127.969 50 127.723 50.4219 127.418 50.8203C126.176 52.5078 124.324 53.3516 121.863 53.3516C120.223 53.3516 118.77 52.9531 117.504 52.1562C115.324 50.7734 114.234 48.5938 114.234 45.6172ZM132.129 58.5898C132.434 58.5898 132.75 58.5312 133.078 58.4141C134.203 57.9219 135.398 56.1641 136.664 53.1406L130.23 38.9375H128.578V38.0234H135.715V38.9375H133.395L138.07 49.8711L142.465 38.9375H139.898V38.0234H145.242C145.242 38.2344 145.23 38.4102 145.207 38.5508C145.137 38.8086 144.855 38.9375 144.363 38.9375C144.176 38.9375 144.012 38.9492 143.871 38.9727C143.566 39.0664 143.297 39.4414 143.062 40.0977L137.859 53.1055C137.344 54.3711 136.816 55.4492 136.277 56.3398C134.918 58.5898 133.312 59.7148 131.461 59.7148C130.898 59.7148 130.359 59.6094 129.844 59.3984C128.812 58.9766 128.297 58.332 128.297 57.4648C128.297 57.3711 128.309 57.2656 128.332 57.1484C128.473 56.4922 128.93 56.1641 129.703 56.1641C129.984 56.1641 130.23 56.2344 130.441 56.375C130.699 56.5391 130.969 56.9844 131.25 57.7109C131.461 58.2969 131.754 58.5898 132.129 58.5898ZM146.719 45.6172C146.719 43.9062 147.105 42.3828 147.879 41.0469C149.215 38.7734 151.359 37.6367 154.312 37.6367C155.672 37.6367 156.914 37.9297 158.039 38.5156C159.492 39.2891 160.219 40.25 160.219 41.3984C160.219 41.5391 160.195 41.6914 160.148 41.8555C159.938 42.6055 159.387 42.9688 158.496 42.9453C158.145 42.9219 157.852 42.8398 157.617 42.6992C157.219 42.4648 156.949 41.8555 156.809 40.8711C156.762 40.4727 156.715 40.1914 156.668 40.0273C156.41 39.0195 155.672 38.5156 154.453 38.5156C153.938 38.5156 153.445 38.6094 152.977 38.7969C151.031 39.5703 150.059 41.7734 150.059 45.4062C150.059 47.0938 150.34 48.5234 150.902 49.6953C151.77 51.4766 153.07 52.3672 154.805 52.3672C155.109 52.3672 155.414 52.3438 155.719 52.2969C157.57 51.9922 158.906 50.9844 159.727 49.2734L160.641 49.5547C160.453 50 160.207 50.4219 159.902 50.8203C158.66 52.5078 156.809 53.3516 154.348 53.3516C152.707 53.3516 151.254 52.9531 149.988 52.1562C147.809 50.7734 146.719 48.5938 146.719 45.6172ZM169.395 52.1211C169.512 52.1211 169.629 52.1328 169.746 52.1562C170.074 52.2031 170.238 52.4844 170.238 53H161.836V52.1211C162.609 52.1211 163.184 52.0625 163.559 51.9453C164.191 51.7344 164.508 51.1016 164.508 50.0469V31.0273H161.836V30.1484H167.496V52.1211H169.395ZM179.484 52.1211C179.625 52.1211 179.742 52.1328 179.836 52.1562C180.188 52.2031 180.363 52.4844 180.363 53H172.172V52.1211C172.875 52.1211 173.402 52.0742 173.754 51.9805C174.48 51.7695 174.844 51.125 174.844 50.0469V38.9023H172.172V38.0234H177.832V52.1211H179.484ZM178.219 32.9961C178.219 33.3008 178.148 33.6055 178.008 33.9102C177.633 34.6836 177.023 35.0703 176.18 35.0703C175.875 35.0703 175.582 35.0117 175.301 34.8945C174.504 34.5195 174.105 33.8867 174.105 32.9961C174.105 32.6914 174.176 32.3867 174.316 32.082C174.691 31.3086 175.312 30.9219 176.18 30.9219C176.484 30.9219 176.789 30.9922 177.094 31.1328C177.844 31.5312 178.219 32.1523 178.219 32.9961ZM189.293 52.1211C189.434 52.1211 189.551 52.1328 189.645 52.1562C189.996 52.2031 190.172 52.4844 190.172 53H182.332V52.1211C183.012 52.1211 183.527 52.0742 183.879 51.9805C184.535 51.7695 184.863 51.125 184.863 50.0469V38.9023H182.332V38.0234H187.676L187.816 41.3281C188.051 40.7422 188.367 40.2148 188.766 39.7461C189.914 38.3398 191.355 37.6367 193.09 37.6367C193.91 37.6367 194.684 37.8359 195.41 38.2344C197.098 39.1719 197.941 40.8711 197.941 43.332V52.1211H199.594C199.734 52.1211 199.852 52.1328 199.945 52.1562C200.297 52.2031 200.473 52.4844 200.473 53H192.527V52.1211C193.207 52.1211 193.711 52.0625 194.039 51.9453C194.648 51.7344 194.953 51.1016 194.953 50.0469V42.9453C194.953 42.3359 194.871 41.7734 194.707 41.2578C194.238 39.8984 193.289 39.2188 191.859 39.2188C191.25 39.2188 190.641 39.4062 190.031 39.7812C188.625 40.7188 187.898 42.2539 187.852 44.3867V52.1211H189.293ZM206.133 43.2617C206.133 43.4727 206.133 43.6836 206.133 43.8945C206.273 46.707 207.375 48.1133 209.438 48.1133C211.406 47.9727 212.496 46.3555 212.707 43.2617C212.707 42.8398 212.695 42.4531 212.672 42.1016C212.438 39.7109 211.359 38.5156 209.438 38.5156C209.273 38.5156 209.109 38.5273 208.945 38.5508C207.07 38.7617 206.133 40.332 206.133 43.2617ZM209.473 37.6367C210.785 37.6367 211.98 37.9297 213.059 38.5156C213.176 38.0938 213.363 37.6953 213.621 37.3203C214.301 36.2656 215.191 35.7383 216.293 35.7383C216.574 35.7383 216.844 35.7852 217.102 35.8789C217.852 36.1602 218.227 36.6875 218.227 37.4609C218.227 37.5312 218.215 37.625 218.191 37.7422C218.074 38.3281 217.723 38.6211 217.137 38.6211C216.902 38.6211 216.656 38.5039 216.398 38.2695C216 37.8945 215.637 37.707 215.309 37.707C214.676 37.7773 214.184 38.2227 213.832 39.043C215.145 40.0742 215.812 41.4688 215.836 43.2266C215.836 44.5859 215.402 45.7812 214.535 46.8125C213.27 48.2656 211.559 48.9922 209.402 48.9922H209.297L206.168 48.957C205.98 48.957 205.805 48.9805 205.641 49.0273C204.938 49.168 204.586 49.5312 204.586 50.1172C204.609 50.9375 205.125 51.3828 206.133 51.4531L212.707 51.5938C213.035 51.5938 213.352 51.6172 213.656 51.6641C216.023 51.9688 217.207 53.1641 217.207 55.25C217.207 55.9062 217.02 56.5273 216.645 57.1133C215.496 58.8477 213.117 59.7148 209.508 59.7148C208.078 59.7148 206.859 59.5039 205.852 59.082C204.305 58.4492 203.531 57.4883 203.531 56.1992C203.531 55.4023 203.906 54.5938 204.656 53.7734C203.695 53.1641 203.203 52.2383 203.18 50.9961C203.18 50.6445 203.227 50.3047 203.32 49.9766C203.742 48.7109 204.68 48.0781 206.133 48.0781C205.945 47.9609 205.746 47.832 205.535 47.6914C203.848 46.4961 203.004 45.0195 203.004 43.2617C203.004 41.9492 203.414 40.8008 204.234 39.8164C205.477 38.3633 207.223 37.6367 209.473 37.6367ZM209.508 58.8008C210.633 58.8008 211.664 58.6953 212.602 58.4844C214.547 58.0156 215.52 57.2539 215.52 56.1992C215.52 55.9414 215.473 55.6953 215.379 55.4609C215.098 54.8047 214.137 54.4648 212.496 54.4414L206.73 54.3711C206.332 54.3711 205.922 54.3125 205.5 54.1953C205.008 54.8047 204.75 55.4141 204.727 56.0234C204.727 56.3516 204.809 56.6797 204.973 57.0078C205.605 58.2031 207.117 58.8008 209.508 58.8008ZM245.895 31.9062V32.8203H243.082V52.0859H244.98C245.098 52.0859 245.215 52.0977 245.332 52.1211C245.707 52.1914 245.895 52.4844 245.895 53H237.07V52.0859H239.883V35.1758L231.902 53.2109H231.164L223.5 37.3203V52.0859H225.398C225.516 52.0859 225.633 52.0977 225.75 52.1211C226.125 52.1914 226.312 52.4844 226.312 53H219.281V52.0859H222.094V32.8203H219.281V31.9062H224.555L232.57 48.6758L239.883 31.9062H245.895ZM260.52 53.3516C258.832 53.3281 257.836 52.2617 257.531 50.1523C257.32 50.668 257.004 51.1484 256.582 51.5938C255.457 52.7656 254.039 53.3516 252.328 53.3516C251.625 53.3516 250.969 53.2344 250.359 53C248.742 52.3672 247.934 51.125 247.934 49.2734C247.934 48.9688 247.957 48.6875 248.004 48.4297C248.496 45.7578 251.66 44.4102 257.496 44.3867V42.1719C257.473 39.7812 256.418 38.5625 254.332 38.5156C253.441 38.5156 252.773 38.8203 252.328 39.4297C252.258 39.5469 252.059 40.0625 251.73 40.9766C251.449 41.7266 250.992 42.1016 250.359 42.1016C250.219 42.1016 250.066 42.0898 249.902 42.0664C249.199 41.9023 248.848 41.4453 248.848 40.6953C248.848 40.2969 248.988 39.8984 249.27 39.5C250.16 38.2578 251.965 37.6367 254.684 37.6367C258.504 37.6602 260.438 39.4531 260.484 43.0156V50.4336C260.508 51.582 260.812 52.1797 261.398 52.2266C262.125 52.2031 262.57 51.3477 262.734 49.6602L263.648 49.6953C263.625 50.0938 263.59 50.4688 263.543 50.8203C263.215 52.5078 262.207 53.3516 260.52 53.3516ZM253.629 51.9102C254.051 51.9102 254.496 51.8164 254.965 51.6289C256.254 51.0195 257.098 49.9062 257.496 48.2891V45.3711C255.855 45.3945 254.578 45.5117 253.664 45.7227C251.93 46.1445 251.062 47.1406 251.062 48.7109C251.062 48.9688 251.074 49.2148 251.098 49.4492C251.309 51.0898 252.152 51.9102 253.629 51.9102ZM270.223 58.8008H272.543C272.684 58.8008 272.801 58.8125 272.895 58.8359C273.246 58.8828 273.422 59.1641 273.422 59.6797H264.703V58.8008C265.406 58.8008 265.934 58.7422 266.285 58.625C266.895 58.4141 267.199 57.7812 267.199 56.7266V38.9023H264.703V38.0234H269.977L270.152 41.75C270.363 41.1406 270.656 40.5781 271.031 40.0625C272.18 38.4453 273.809 37.6367 275.918 37.6367C277.348 37.6367 278.578 38.0938 279.609 39.0078C281.133 40.3906 281.895 42.4297 281.895 45.125C281.895 47.4688 281.238 49.4023 279.926 50.9258C278.52 52.543 276.75 53.3516 274.617 53.3516C272.906 53.2578 271.441 52.6602 270.223 51.5586V58.8008ZM274.652 39.1133C273.855 39.1133 273.117 39.3711 272.438 39.8867C270.938 41.0586 270.188 43.1562 270.188 46.1797C270.188 47.5156 270.352 48.6641 270.68 49.625C271.359 51.5234 272.555 52.4727 274.266 52.4727C274.805 52.4727 275.309 52.3672 275.777 52.1562C277.629 51.3125 278.555 49.0977 278.555 45.5117C278.555 44.7852 278.508 44.0938 278.414 43.4375C277.992 40.5547 276.738 39.1133 274.652 39.1133Z" fill="url(#paint1_linear_19_178)"/>
<defs>
<filter id="filter0_b_19_178" x="15.9605" y="3.24021" width="41.8629" height="43.5342" filterUnits="userSpaceOnUse" color-interpolation-filters="sRGB">
<feFlood flood-opacity="0" result="BackgroundImageFix"/>
<feGaussianBlur in="BackgroundImageFix" stdDeviation="2"/>
<feComposite in2="SourceAlpha" operator="in" result="effect1_backgroundBlur_19_178"/>
<feBlend mode="normal" in="SourceGraphic" in2="effect1_backgroundBlur_19_178" result="shape"/>
</filter>
<linearGradient id="paint0_linear_19_178" x1="45.2756" y1="8.89764" x2="27.0963" y2="39.0286" gradientUnits="userSpaceOnUse">
<stop stop-color="#78E996"/>
<stop offset="1" stop-color="#2A5235"/>
</linearGradient>
<linearGradient id="paint1_linear_19_178" x1="75.5288" y1="54.5378" x2="279.656" y2="36.1283" gradientUnits="userSpaceOnUse">
<stop stop-color="#366944"/>
<stop offset="1"/>
</linearGradient>
</defs>
</svg>
